<svg xmlns="http://www.w3.org/2000/svg" xmlns:xlink="http://www.w3.org/1999/xlink" viewBox="0 0 130.17 134.81"><defs><style>.cls-1{fill:none;}.cls-2{clip-path:url(#clip-path);}.cls-3{fill:#e7eced;}.cls-4{fill:#424a60;}.cls-5{fill:#22c2d3;}.cls-6{fill:#262b35;}.cls-7{fill:#f2f2f2;}.cls-8{fill:#f8b64c;}.cls-9{fill:#ffd15c;}.cls-10{opacity:0.1;}.cls-11{clip-path:url(#clip-path-2);}.cls-12{fill:#40596b;}.cls-13{fill:#acb3ba;}.cls-14{fill:#334a5e;}</style><clipPath id="clip-path" transform="translate(0 -1.16)"><rect class="cls-1" width="130.4" height="138.77"/></clipPath><clipPath id="clip-path-2" transform="translate(0 -1.16)"><rect class="cls-1" x="59.31" y="59.03" width="15" height="9.93"/></clipPath></defs><title>Asset 3</title><g id="Layer_2" data-name="Layer 2"><g id="Layer_1-2" data-name="Layer 1"><g class="cls-2"><path class="cls-3" d="M27.9,10.09a7.89,7.89,0,0,1,1.27-4.28L5.87,12.06a7.91,7.91,0,0,0-5.6,9.69L27.73,124.19a.09.09,0,0,0,.17,0Zm0,0" transform="translate(0 -1.16)"/><path class="cls-3" d="M102.27,7.77A7.9,7.9,0,0,0,101,3.49l23.3,6.24a7.91,7.91,0,0,1,5.6,9.69L102.44,121.88a.09.09,0,0,1-.17,0Zm0,0" transform="translate(0 -1.16)"/></g><path class="cls-4" d="M94.36,136H35.81a7.91,7.91,0,0,1-7.91-7.91V9.07a7.91,7.91,0,0,1,7.91-7.91H94.36a7.91,7.91,0,0,1,7.91,7.91v119A7.91,7.91,0,0,1,94.36,136Zm0,0" transform="translate(0 -1.16)"/><rect class="cls-5" x="27.9" y="13.95" width="74.37" height="92.98"/><path class="cls-6" d="M72.06,122a7,7,0,1,1-7-7,7,7,0,0,1,7,7Zm0,0" transform="translate(0 -1.16)"/><path class="cls-6" d="M65.08,10.46H55.78a2.32,2.32,0,1,1,0-4.64h9.29a2.32,2.32,0,1,1,0,4.64Zm0,0" transform="translate(0 -1.16)"/><path class="cls-6" d="M74.39,10.46H72.06a2.32,2.32,0,1,1,0-4.64h2.33a2.32,2.32,0,0,1,0,4.64Zm0,0" transform="translate(0 -1.16)"/><path class="cls-7" d="M96,80.57a11.85,11.85,0,0,0-7.84-11.14l-13.83-5h0a12.83,12.83,0,0,1-19.59,0l-13.83,5A11.84,11.84,0,0,0,33,80.58v9.84H96V80.57Z" transform="translate(0 -1.16)"/><path class="cls-8" d="M55.92,64c.11.14.09.14,0,0Z" transform="translate(0 -1.16)"/><path class="cls-8" d="M73.14,64c-.11.14-.12.14,0,0Z" transform="translate(0 -1.16)"/><rect id="SVGCleanerId_0" data-name="SVGCleanerId 0" class="cls-8" x="73.13" y="62.85" width="0.02"/><rect id="SVGCleanerId_0-2" data-name="SVGCleanerId 0" class="cls-8" x="73.13" y="62.85" width="0.02"/><path class="cls-8" d="M55.91,47.4c.19,2.21-.88,4.12-2.4,4.25s-2.91-1.55-3.1-3.77.88-4.12,2.4-4.25,2.91,1.55,3.1,3.77" transform="translate(0 -1.16)"/><path class="cls-8" d="M78.64,47.89c-.19,2.21-1.58,3.9-3.1,3.77s-2.59-2-2.4-4.25,1.58-3.9,3.1-3.77,2.59,2,2.4,4.25" transform="translate(0 -1.16)"/><path class="cls-9" d="M64.53,28.92A12.77,12.77,0,0,0,51.76,41.69v3.83a23,23,0,0,0,.18,2.92h0a24,24,0,0,0,6.11,13.3l1.21,1.33A5.86,5.86,0,0,0,63.6,65h1.85a5.87,5.87,0,0,0,4.34-1.91L71,61.75a24.06,24.06,0,0,0,6.12-13.3,23.54,23.54,0,0,0,.18-2.92V41.69A12.77,12.77,0,0,0,64.53,28.92Z" transform="translate(0 -1.16)"/><path class="cls-8" d="M73.13,64h0V59h0A24.3,24.3,0,0,1,71,61.75l-1.22,1.33A5.87,5.87,0,0,1,65.45,65H63.6a5.87,5.87,0,0,1-4.34-1.91l-1.21-1.33A23.55,23.55,0,0,1,55.92,59h0v5l-1.19.44a12.83,12.83,0,0,0,19.59,0h0L73.15,64h0Z" transform="translate(0 -1.16)"/><g class="cls-10"><g class="cls-11"><path class="cls-12" d="M73.13,64h0V59h0A23.79,23.79,0,0,1,71,61.75l-1.22,1.33A5.87,5.87,0,0,1,65.45,65H63.6a5.86,5.86,0,0,1-4.27-1.86h0L65.19,69a12.75,12.75,0,0,0,9.12-4.51h0L73.14,64h0Z" transform="translate(0 -1.16)"/></g></g><path class="cls-12" d="M78.87,41.33h0a14.34,14.34,0,1,0-28.69,0h0c-.19,2.56,0,5.75,1.6,7,0,0,1.1-.15.73-2.53a2.47,2.47,0,0,1,0-1.75,14.42,14.42,0,0,0,.79-2.7H75.72A13.18,13.18,0,0,0,76.5,44a2.46,2.46,0,0,1,0,1.78c-.37,2.38.74,2.53.74,2.53,1.65-1.24,1.79-4.43,1.6-7" transform="translate(0 -1.16)"/><path class="cls-13" d="M52.7,66.15a15.44,15.44,0,0,0,11.81,5.48h0a15.45,15.45,0,0,0,11.77-5.43,2.68,2.68,0,0,0,.52-.86l-2.49-.9h0a12.83,12.83,0,0,1-19.59,0l-2.48.89a2.65,2.65,0,0,0,.46.81" transform="translate(0 -1.16)"/><path class="cls-12" d="M95.84,78.74H33.19a11.55,11.55,0,0,1,1-3.17H94.86a11.37,11.37,0,0,1,1,3.17" transform="translate(0 -1.16)"/><rect class="cls-12" x="33.05" y="81.94" width="62.94" height="3.17"/><path class="cls-12" d="M68.06,71.22H91.4a12.28,12.28,0,0,0-3.25-1.78L84.31,68H74.4a15.42,15.42,0,0,1-6.34,3.17" transform="translate(0 -1.16)"/><path class="cls-12" d="M54.64,68H44.73l-3.85,1.39a12.17,12.17,0,0,0-3.27,1.78H61A15.41,15.41,0,0,1,54.64,68" transform="translate(0 -1.16)"/><path class="cls-12" d="M76.79,51.28,73,56.65a2.81,2.81,0,0,1-4.39.25h0a2.8,2.8,0,0,0-2.1-.94h-4a2.8,2.8,0,0,0-2.1.94,2.81,2.81,0,0,1-4.39-.25l-3.79-5.37c-.57,15,12.26,15.5,12.26,15.5s12.83-.47,12.26-15.5M61,61.57a2.44,2.44,0,0,1,2.44-2.44h2.17a2.45,2.45,0,0,1,2.45,2.44Z" transform="translate(0 -1.16)"/><path class="cls-12" d="M64.53,44.51c-5.32-.13-12.77-1.15-12.77-1.15.53,4.49,5.29,6.22,5.29,6.22,4.36,2.23,6,0,6,0,.8-1.42,1.52-1.42,1.52-1.42s.73,0,1.52,1.42c0,0,1.6,2.23,6,0,0,0,4.75-1.73,5.29-6.22,0,0-7.45,1-12.77,1.15M61.82,47.2a2.68,2.68,0,0,1-1.47.88A2.89,2.89,0,0,1,57,46a7.74,7.74,0,0,1,3.2-.19c2.31.44,1.61,1.36,1.61,1.36m6.88.88a2.68,2.68,0,0,1-1.47-.88s-.7-.92,1.62-1.36A7.73,7.73,0,0,1,72,46a2.9,2.9,0,0,1-3.35,2.05" transform="translate(0 -1.16)"/><path class="cls-14" d="M78.14,44.64a59.45,59.45,0,0,0-27.23,0,1.22,1.22,0,0,1-1.47-.86q.34-4.17,1-8.36A1.3,1.3,0,0,1,51.63,34a69.77,69.77,0,0,1,25.79,0,1.29,1.29,0,0,1,1.15,1.44c.47,2.79.82,5.58,1,8.36a1.22,1.22,0,0,1-1.47.86" transform="translate(0 -1.16)"/></g></g></svg>