<svg xmlns="http://www.w3.org/2000/svg" xmlns:xlink="http://www.w3.org/1999/xlink" viewBox="0 0 130.17 134.81"><defs><style>.cls-1{fill:none;}.cls-2{clip-path:url(#clip-path);}.cls-3{fill:#e7eced;}.cls-4{fill:#424a60;}.cls-5{fill:#22c2d3;}.cls-6{fill:#262b35;}.cls-7{fill:#d83e20;}.cls-8{fill:#ffd15d;}.cls-9{fill:#f9b54c;}</style><clipPath id="clip-path" transform="translate(0 -1.16)"><rect class="cls-1" width="130.4" height="138.77"/></clipPath></defs><title>Asset 6</title><g id="Layer_2" data-name="Layer 2"><g id="Layer_1-2" data-name="Layer 1"><g class="cls-2"><path class="cls-3" d="M27.9,10.09a7.89,7.89,0,0,1,1.27-4.28L5.87,12.06a7.91,7.91,0,0,0-5.6,9.69L27.73,124.19a.09.09,0,0,0,.17,0Zm0,0" transform="translate(0 -1.16)"/><path class="cls-3" d="M102.27,7.77A7.9,7.9,0,0,0,101,3.49l23.3,6.24a7.91,7.91,0,0,1,5.6,9.69L102.44,121.88a.09.09,0,0,1-.17,0Zm0,0" transform="translate(0 -1.16)"/></g><path class="cls-4" d="M94.36,136H35.81a7.91,7.91,0,0,1-7.91-7.91V9.07a7.91,7.91,0,0,1,7.91-7.91H94.36a7.91,7.91,0,0,1,7.91,7.91v119A7.91,7.91,0,0,1,94.36,136Zm0,0" transform="translate(0 -1.16)"/><rect class="cls-5" x="27.9" y="13.95" width="74.37" height="92.98"/><path class="cls-6" d="M72.06,122a7,7,0,1,1-7-7,7,7,0,0,1,7,7Zm0,0" transform="translate(0 -1.16)"/><path class="cls-6" d="M65.08,10.46H55.78a2.32,2.32,0,1,1,0-4.64h9.29a2.32,2.32,0,1,1,0,4.64Zm0,0" transform="translate(0 -1.16)"/><path class="cls-6" d="M74.39,10.46H72.06a2.32,2.32,0,1,1,0-4.64h2.33a2.32,2.32,0,0,1,0,4.64Zm0,0" transform="translate(0 -1.16)"/><path class="cls-7" d="M42.47,69.88c0-12.61,22.83-41.31,22.83-41.31s22.83,28.7,22.83,41.31a22.83,22.83,0,0,1-45.66,0Z" transform="translate(0 -1.16)"/><path class="cls-8" d="M65.37,69.88S65.92,63,61,54.58c0,0-11.29,13.15-10.11,23.72.89,7.91,6.45,14.41,14.41,14.41S79.24,86.24,79.72,78.3A32.27,32.27,0,0,0,66.54,50.43S70.5,66,65.37,69.88Z" transform="translate(0 -1.16)"/><path class="cls-9" d="M66.17,53.47s2.78,10.9-.82,13.66a13.62,13.62,0,0,0-.2-2.94v19h.16c5.59,0,9.78-4.54,10.12-10.12A22.66,22.66,0,0,0,66.17,53.47Z" transform="translate(0 -1.16)"/></g></g></svg>