<svg xmlns="http://www.w3.org/2000/svg" xmlns:xlink="http://www.w3.org/1999/xlink" viewBox="0 0 130.17 134.81"><defs><style>.cls-1{fill:none;}.cls-2{clip-path:url(#clip-path);}.cls-3{fill:#e7eced;}.cls-4{fill:#424a60;}.cls-5{fill:#22c2d3;}.cls-6{fill:#262b35;}</style><clipPath id="clip-path" transform="translate(0 -1.16)"><rect class="cls-1" width="130.4" height="138.77"/></clipPath></defs><title>Asset 1</title><g id="Layer_2" data-name="Layer 2"><g id="Layer_1-2" data-name="Layer 1"><g class="cls-2"><path class="cls-3" d="M27.9,10.09a7.89,7.89,0,0,1,1.27-4.28L5.87,12.06a7.91,7.91,0,0,0-5.6,9.69L27.73,124.19a.09.09,0,0,0,.17,0Zm0,0" transform="translate(0 -1.16)"/><path class="cls-3" d="M102.27,7.77A7.9,7.9,0,0,0,101,3.49l23.3,6.24a7.91,7.91,0,0,1,5.6,9.69L102.44,121.88a.09.09,0,0,1-.17,0Zm0,0" transform="translate(0 -1.16)"/></g><path class="cls-4" d="M94.36,136H35.81a7.91,7.91,0,0,1-7.91-7.91V9.07a7.91,7.91,0,0,1,7.91-7.91H94.36a7.91,7.91,0,0,1,7.91,7.91v119A7.91,7.91,0,0,1,94.36,136Zm0,0" transform="translate(0 -1.16)"/><rect class="cls-5" x="27.9" y="13.95" width="74.37" height="92.98"/><path class="cls-6" d="M72.06,122a7,7,0,1,1-7-7,7,7,0,0,1,7,7Zm0,0" transform="translate(0 -1.16)"/><path class="cls-6" d="M65.08,10.46H55.78a2.32,2.32,0,1,1,0-4.64h9.29a2.32,2.32,0,1,1,0,4.64Zm0,0" transform="translate(0 -1.16)"/><path class="cls-6" d="M74.39,10.46H72.06a2.32,2.32,0,1,1,0-4.64h2.33a2.32,2.32,0,0,1,0,4.64Zm0,0" transform="translate(0 -1.16)"/><image width="1600" height="1600" transform="translate(33.95 33.18) scale(0.04 0.04)" xlink:href="../../../../Downloads/download.png"/></g></g></svg>