<svg xmlns="http://www.w3.org/2000/svg" xmlns:xlink="http://www.w3.org/1999/xlink" viewBox="0 0 130.17 134.81"><defs><style>.cls-1{fill:none;}.cls-2{clip-path:url(#clip-path);}.cls-3{fill:#e7eced;}.cls-4{fill:#424a60;}.cls-5{fill:#9be0e9;}.cls-6{fill:#262b35;}.cls-7{fill:#68ccea;}.cls-8{fill:#5abce2;}</style><clipPath id="clip-path" transform="translate(0 -1.16)"><rect class="cls-1" width="130.4" height="138.77"/></clipPath></defs><title>Asset 5</title><g id="Layer_2" data-name="Layer 2"><g id="Layer_1-2" data-name="Layer 1"><g class="cls-2"><path class="cls-3" d="M27.9,10.09a7.89,7.89,0,0,1,1.27-4.28L5.87,12.06a7.91,7.91,0,0,0-5.6,9.69L27.73,124.19a.09.09,0,0,0,.17,0Zm0,0" transform="translate(0 -1.16)"/><path class="cls-3" d="M102.27,7.77A7.9,7.9,0,0,0,101,3.49l23.3,6.24a7.91,7.91,0,0,1,5.6,9.69L102.44,121.88a.09.09,0,0,1-.17,0Zm0,0" transform="translate(0 -1.16)"/></g><path class="cls-4" d="M94.36,136H35.81a7.91,7.91,0,0,1-7.91-7.91V9.07a7.91,7.91,0,0,1,7.91-7.91H94.36a7.91,7.91,0,0,1,7.91,7.91v119A7.91,7.91,0,0,1,94.36,136Zm0,0" transform="translate(0 -1.16)"/><rect class="cls-5" x="27.9" y="13.95" width="74.37" height="92.98"/><path class="cls-6" d="M72.06,122a7,7,0,1,1-7-7,7,7,0,0,1,7,7Zm0,0" transform="translate(0 -1.16)"/><path class="cls-6" d="M65.08,10.46H55.78a2.32,2.32,0,1,1,0-4.64h9.29a2.32,2.32,0,1,1,0,4.64Zm0,0" transform="translate(0 -1.16)"/><path class="cls-6" d="M74.39,10.46H72.06a2.32,2.32,0,1,1,0-4.64h2.33a2.32,2.32,0,0,1,0,4.64Zm0,0" transform="translate(0 -1.16)"/><path class="cls-7" d="M84.42,67.07l0,0L67.22,33.89a.41.41,0,0,0-.74,0L49.29,67l0,0A19.38,19.38,0,0,0,66.84,93.22h0A19.38,19.38,0,0,0,84.42,67.07Z" transform="translate(0 -1.16)"/><path class="cls-8" d="M68.17,89.9a21.52,21.52,0,0,1-6.46-15.27.42.42,0,0,1,0-.06l4.62-40.41L49.29,67l0,0A19.38,19.38,0,0,0,66.84,93.22h0a19.33,19.33,0,0,0,4.55-.69A21.91,21.91,0,0,1,68.17,89.9Z" transform="translate(0 -1.16)"/><path class="cls-8" d="M111,76l0,0-8.48-16.33a.41.41,0,0,0-.74,0L93.32,75.91l0,0a9.77,9.77,0,0,0,8.85,13.18h0A9.77,9.77,0,0,0,111,76Z" transform="translate(0 -1.16)"/><path class="cls-7" d="M111,76l0,0-8.48-16.33a.41.41,0,0,0-.37-.22h0l-3.34,19.4a.41.41,0,0,0,0,.05,10.78,10.78,0,0,0,5.61,10c.29-.08.58-.17.86-.28A9.78,9.78,0,0,0,111,76Z" transform="translate(0 -1.16)"/><path class="cls-8" d="M94.14,101.77,88.49,90.88a.41.41,0,0,0-.74,0L82.1,101.77l0,0a6.65,6.65,0,0,0,6,9h0a6.65,6.65,0,0,0,6-9Z" transform="translate(0 -1.16)"/><path class="cls-7" d="M94.16,101.81l0,0L88.49,90.88a.41.41,0,0,0-.37-.22l-.13,0-2.32,13.64a.45.45,0,0,0,0,.06,7.51,7.51,0,0,0,3,6.37,6.65,6.65,0,0,0,5.48-8.93Z" transform="translate(0 -1.16)"/></g></g></svg>